<?xml version="1.0" encoding="UTF-8" standalone="no"?>
<!DOCTYPE svg PUBLIC "-//W3C//DTD SVG 1.1//EN"
 "http://www.w3.org/Graphics/SVG/1.1/DTD/svg11.dtd">
<!-- Generated by graphviz version 3.0.0 (20220226.1711)
 -->
<!-- Pages: 1 -->
<svg width="928pt" height="296pt"
 viewBox="0.00 0.00 927.50 296.00" xmlns="http://www.w3.org/2000/svg" xmlns:xlink="http://www.w3.org/1999/xlink">
<g id="graph0" class="graph" transform="scale(1 1) rotate(0) translate(4 292)">
<polygon fill="white" stroke="transparent" points="-4,4 -4,-292 923.5,-292 923.5,4 -4,4"/>
<!-- epic1 -->
<g id="node1" class="node">
<title>epic1</title>
<image xlink:href="images/epic.svg" width="49px" height="49px" preserveAspectRatio="xMinYMin meet" x="342" y="-72"/>
<text text-anchor="middle" x="366.5" y="-3.8" font-family="Helvetica,sans-Serif" font-size="14.00">Qourier WebApp</text>
</g>
<!-- epic2 -->
<g id="node2" class="node">
<title>epic2</title>
<image xlink:href="images/epic.svg" width="49px" height="49px" preserveAspectRatio="xMinYMin meet" x="780" y="-72"/>
<text text-anchor="middle" x="804.5" y="-3.8" font-family="Helvetica,sans-Serif" font-size="14.00">Qourier Service</text>
</g>
<!-- us1 -->
<g id="node3" class="node">
<title>us1</title>
<image xlink:href="images/user_story.svg" width="49px" height="49px" preserveAspectRatio="xMinYMin meet" x="236" y="-180"/>
<text text-anchor="middle" x="260.5" y="-111.8" font-family="Helvetica,sans-Serif" font-size="14.00">Check Riders&#39; progress</text>
</g>
<!-- us1&#45;&gt;epic1 -->
<g id="edge7" class="edge">
<title>us1&#45;&gt;epic1</title>
<path fill="none" stroke="black" d="M295.5,-108C304.63,-98.87 314.57,-88.93 324.04,-79.46"/>
<polygon fill="black" stroke="black" points="326.58,-81.87 331.17,-72.33 321.63,-76.92 326.58,-81.87"/>
</g>
<!-- us2 -->
<g id="node4" class="node">
<title>us2</title>
<image xlink:href="images/user_story.svg" width="49px" height="49px" preserveAspectRatio="xMinYMin meet" x="448" y="-180"/>
<text text-anchor="middle" x="472.5" y="-111.8" font-family="Helvetica,sans-Serif" font-size="14.00">Check delivery performance</text>
</g>
<!-- us2&#45;&gt;epic1 -->
<g id="edge8" class="edge">
<title>us2&#45;&gt;epic1</title>
<path fill="none" stroke="black" d="M437.5,-108C428.37,-98.87 418.43,-88.93 408.96,-79.46"/>
<polygon fill="black" stroke="black" points="411.37,-76.92 401.83,-72.33 406.42,-81.87 411.37,-76.92"/>
</g>
<!-- us3 -->
<g id="node5" class="node">
<title>us3</title>
<image xlink:href="images/user_story.svg" width="49px" height="49px" preserveAspectRatio="xMinYMin meet" x="780" y="-180"/>
<text text-anchor="middle" x="804.5" y="-111.8" font-family="Helvetica,sans-Serif" font-size="14.00">Request a delivery</text>
</g>
<!-- us3&#45;&gt;epic2 -->
<g id="edge6" class="edge">
<title>us3&#45;&gt;epic2</title>
<path fill="none" stroke="black" d="M804.5,-108C804.5,-99.85 804.5,-91.06 804.5,-82.54"/>
<polygon fill="black" stroke="black" points="808,-82.33 804.5,-72.33 801,-82.33 808,-82.33"/>
</g>
<!-- t1 -->
<g id="node6" class="node">
<title>t1</title>
<image xlink:href="images/task.svg" width="49px" height="49px" preserveAspectRatio="xMinYMin meet" x="111" y="-288"/>
<text text-anchor="middle" x="135.5" y="-219.8" font-family="Helvetica,sans-Serif" font-size="14.00">&quot;Rider progress report&quot; API endpoint</text>
</g>
<!-- t1&#45;&gt;us1 -->
<g id="edge1" class="edge">
<title>t1&#45;&gt;us1</title>
<path fill="none" stroke="black" d="M176.78,-216C187.75,-206.69 199.72,-196.54 211.09,-186.9"/>
<polygon fill="black" stroke="black" points="213.48,-189.46 218.84,-180.33 208.95,-184.13 213.48,-189.46"/>
</g>
<!-- t2 -->
<g id="node7" class="node">
<title>t2</title>
<image xlink:href="images/task.svg" width="49px" height="49px" preserveAspectRatio="xMinYMin meet" x="348" y="-288"/>
<text text-anchor="middle" x="372.5" y="-219.8" font-family="Helvetica,sans-Serif" font-size="14.00">Admin authentication</text>
</g>
<!-- t2&#45;&gt;us1 -->
<g id="edge2" class="edge">
<title>t2&#45;&gt;us1</title>
<path fill="none" stroke="black" d="M335.52,-216C325.87,-206.87 315.37,-196.93 305.36,-187.46"/>
<polygon fill="black" stroke="black" points="307.5,-184.66 297.83,-180.33 302.68,-189.74 307.5,-184.66"/>
</g>
<!-- t2&#45;&gt;us2 -->
<g id="edge3" class="edge">
<title>t2&#45;&gt;us2</title>
<path fill="none" stroke="black" d="M405.52,-216C414.05,-206.96 423.33,-197.12 432.18,-187.74"/>
<polygon fill="black" stroke="black" points="434.86,-190 439.17,-180.33 429.76,-185.2 434.86,-190"/>
</g>
<!-- t3 -->
<g id="node8" class="node">
<title>t3</title>
<image xlink:href="images/task.svg" width="49px" height="49px" preserveAspectRatio="xMinYMin meet" x="548" y="-288"/>
<text text-anchor="middle" x="572.5" y="-219.8" font-family="Helvetica,sans-Serif" font-size="14.00">Setup Grafana integration</text>
</g>
<!-- t3&#45;&gt;us2 -->
<g id="edge4" class="edge">
<title>t3&#45;&gt;us2</title>
<path fill="none" stroke="black" d="M539.48,-216C530.95,-206.96 521.67,-197.12 512.82,-187.74"/>
<polygon fill="black" stroke="black" points="515.24,-185.2 505.83,-180.33 510.14,-190 515.24,-185.2"/>
</g>
<!-- t4 -->
<g id="node9" class="node">
<title>t4</title>
<image xlink:href="images/task.svg" width="49px" height="49px" preserveAspectRatio="xMinYMin meet" x="780" y="-288"/>
<text text-anchor="middle" x="804.5" y="-219.8" font-family="Helvetica,sans-Serif" font-size="14.00">&quot;Accept delivery&quot; API endpoint</text>
</g>
<!-- t4&#45;&gt;us3 -->
<g id="edge5" class="edge">
<title>t4&#45;&gt;us3</title>
<path fill="none" stroke="black" d="M804.5,-216C804.5,-207.85 804.5,-199.06 804.5,-190.54"/>
<polygon fill="black" stroke="black" points="808,-190.33 804.5,-180.33 801,-190.33 808,-190.33"/>
</g>
</g>
</svg>
